<svg width="154" height="154" viewBox="0 0 154 154" fill="none" xmlns="http://www.w3.org/2000/svg">
<g id="Group 2251" filter="url(#filter0_d_5615_255)">
<path id="Vector" d="M115.33 145.807H38.5144C19.5736 145.807 4 130.448 4 111.301V34.5055C4 15.5696 19.3631 0 38.5144 0H115.33C134.271 0 149.845 15.3592 149.845 34.5055V111.301C149.845 130.237 134.271 145.807 115.33 145.807ZM38.5144 1.6832C20.4154 1.6832 5.68364 16.4112 5.68364 34.5055V111.301C5.68364 129.396 20.4154 144.124 38.5144 144.124H115.33C133.429 144.124 148.161 129.396 148.161 111.301V34.5055C148.161 16.4112 133.429 1.6832 115.33 1.6832H38.5144Z" fill="url(#paint0_linear_5615_255)"/>
<g id="Group">
<g id="Group_2">
<path id="Vector_2" d="M125.849 93.8382C125.638 92.7862 125.007 91.7342 124.586 91.103C124.375 90.8926 124.375 90.6822 124.165 90.6822C120.166 86.6846 114.484 90.051 108.591 93.4174C105.435 95.311 102.067 97.2046 99.5419 97.6254C98.7 97.6254 98.0687 97.6254 97.2269 97.415C96.3851 97.2046 95.5432 96.7838 94.9119 96.1526C94.0701 95.5214 89.0192 92.155 83.3369 88.7886C78.7069 85.843 73.656 82.8974 69.8679 80.7934C68.1842 79.9518 66.7111 79.531 65.6588 79.531C64.3961 79.531 63.5542 79.531 63.1333 79.531C60.3974 79.9518 57.0302 80.7934 53.8733 81.8454C49.0329 83.3182 44.4029 85.0014 41.2461 86.2638L40.4043 86.6846L40.6147 87.7366L45.0343 111.091L45.2447 112.353L46.5075 112.143C47.1388 112.143 47.1388 112.143 47.3493 112.143C50.0852 111.722 52.4002 111.301 54.5047 111.933C57.872 112.774 61.4497 114.457 64.8169 116.141C70.9201 118.876 77.2337 122.032 84.8101 122.032C87.1251 122.032 92.3865 119.507 98.9105 115.72C106.697 111.091 116.378 104.779 125.007 98.6774C125.217 98.6774 125.217 98.467 125.428 98.467C126.27 96.7838 126.27 95.311 125.849 93.8382ZM123.534 95.9422C114.905 102.044 105.224 108.356 97.4373 112.774C91.1237 116.351 86.2833 118.876 84.5996 118.876C77.4442 118.876 71.341 115.93 65.4483 113.195C61.6601 111.512 58.2929 109.829 54.5047 108.987C52.1897 108.356 49.6643 108.777 46.9284 109.197L42.9297 88.1574C46.0865 86.895 50.2956 85.4222 54.5047 84.1598C57.6615 83.1078 60.8183 82.2662 63.3438 81.8454C63.5542 81.8454 64.3961 81.635 65.2379 81.8454C66.0797 81.8454 67.3424 82.2662 68.3947 82.8974C70.7097 84.1598 73.4456 85.843 76.3919 87.5262C76.6024 87.7366 77.0233 87.947 77.2338 88.1574L93.8596 99.0982C94.0701 99.3086 94.2805 99.3086 94.491 99.7294C95.1223 100.361 95.5433 101.202 95.7537 101.833C95.9642 102.465 95.7537 103.306 95.5432 103.727C95.5432 103.727 95.3328 103.937 95.3328 104.148C94.491 104.989 93.6492 105.621 92.5969 105.831C91.7551 106.041 90.7028 105.831 89.6505 105.41L71.5515 97.415C71.5515 97.415 71.341 97.415 71.341 97.2046C70.4992 96.5734 77.6547 102.675 88.8087 107.514C90.2819 108.145 91.7551 108.356 93.2282 107.935C94.7014 107.725 95.9642 106.883 97.2269 105.621C97.4373 105.41 97.6478 105.2 97.8583 104.779C98.7001 103.517 98.7 102.254 98.4896 100.781C98.4896 100.361 98.2791 99.9398 98.0687 99.7294C98.7001 99.7294 99.121 99.7294 99.7523 99.7294C102.909 99.3086 106.276 97.415 109.644 95.311C114.695 92.3654 119.535 89.6302 122.06 92.155C122.06 92.155 122.06 92.155 122.271 92.3654C122.481 92.7862 123.113 93.6278 123.323 94.4694C123.534 95.1006 123.744 95.7318 123.534 95.9422Z" fill="url(#paint1_linear_5615_255)"/>
<g id="Group_3">
<path id="Vector_3" d="M34.3009 116.351L27.7769 86.4742L27.5664 85.4222L28.6187 85.2118L40.825 82.687L41.8773 82.4766L42.0878 83.5286L47.77 114.036L47.9804 115.088L46.9282 115.299L35.5637 117.403L34.5114 117.613L34.3009 116.351ZM30.3023 86.8949L36.4055 114.668L45.6655 112.984L40.4041 84.5806L30.3023 86.8949Z" fill="url(#paint2_linear_5615_255)"/>
</g>
</g>
<g id="Group_4">
<path id="Vector_4" d="M120.168 55.896C120.168 57.5792 119.958 59.2624 119.537 60.5248C119.116 61.9976 118.485 63.0496 117.643 63.8912C116.801 64.7328 115.749 65.5744 114.697 65.9952C113.644 66.416 112.382 66.6264 110.908 66.6264C110.067 66.6264 109.225 66.6264 108.383 66.416C107.541 66.2056 106.91 65.9952 106.068 65.5744C105.437 65.1536 104.805 64.7328 104.174 64.1016C103.543 63.4704 103.122 62.8392 102.701 61.9976C102.28 61.156 102.069 60.3144 101.859 59.2624C101.648 58.4208 101.648 57.1584 101.648 56.1064C101.648 54.2128 101.859 52.74 102.069 51.2672C102.49 49.7944 102.911 48.7424 103.753 47.6904C104.595 46.6384 105.437 46.0072 106.699 45.376C107.752 44.9552 109.225 44.5344 110.698 44.5344C111.54 44.5344 112.171 44.5344 112.803 44.7448C113.434 44.9552 114.065 44.9552 114.697 45.376C115.328 45.5864 115.749 46.0072 116.38 46.2176C117.012 46.6384 117.222 47.0592 117.643 47.48C118.064 47.9008 118.485 48.532 118.695 49.1632C119.116 49.7944 119.327 50.4256 119.537 51.0568C119.747 51.688 119.958 52.5296 119.958 53.3712C120.168 54.0024 120.168 54.844 120.168 55.896ZM113.434 55.4752C113.434 54.4232 113.434 53.3712 113.223 52.5296C113.013 51.688 113.013 51.2672 112.803 50.8464C112.592 50.4256 112.382 50.2152 111.961 50.0048C111.75 49.7944 111.329 49.7944 110.908 49.7944C110.487 49.7944 110.277 49.7944 110.067 50.0048C109.856 50.2152 109.646 50.2152 109.435 50.4256C109.225 50.636 109.014 50.8464 109.014 51.0568C108.804 51.2672 108.804 51.688 108.593 52.1088C108.593 52.5296 108.383 52.9504 108.383 53.5816C108.383 54.2128 108.383 54.844 108.383 55.6856C108.383 56.7376 108.383 57.7896 108.593 58.6312C108.593 59.4728 108.804 60.104 109.014 60.5248C109.225 60.9456 109.435 61.156 109.856 61.3664C110.067 61.5768 110.487 61.5768 110.908 61.5768C111.329 61.5768 111.75 61.5768 111.961 61.3664C112.382 61.156 112.592 60.9456 112.803 60.5248C113.013 60.104 113.223 59.4728 113.223 58.6312C113.434 57.5792 113.434 56.7376 113.434 55.4752Z" fill="url(#paint3_linear_5615_255)"/>
<path id="Vector_5" d="M92.809 36.5394C92.809 38.2226 92.5986 39.9057 92.1777 41.1681C91.7567 42.6409 91.1254 43.6929 90.2836 44.7449C89.4418 45.5865 88.3895 46.4281 87.3372 46.8489C86.285 47.2697 85.0222 47.6905 83.5491 47.6905C82.7072 47.6905 81.8654 47.4801 81.0236 47.2697C80.1818 47.0593 79.5504 46.8489 78.7086 46.4281C77.8668 46.0073 77.4459 45.5865 76.8145 44.9553C76.1832 44.3241 75.7622 43.6929 75.3413 42.8513C74.9204 42.0097 74.71 41.1681 74.4995 40.1161C74.2891 39.2746 74.2891 38.0122 74.2891 36.9602C74.2891 35.9082 74.2891 34.6458 74.4995 33.5938C74.71 32.5418 74.9204 31.7002 75.1309 30.8586C75.3414 30.017 75.7623 29.1754 76.1832 28.5442C76.8145 27.913 77.2354 27.2818 78.0772 26.861C78.9191 26.4402 79.5504 26.0194 80.3922 25.809C81.2341 25.5986 82.0759 25.3882 83.1282 25.3882C83.97 25.3882 84.6013 25.3882 85.2327 25.5986C85.8641 25.809 86.4954 26.0194 87.1268 26.2298C87.7581 26.4402 88.179 26.861 88.8104 27.0714C89.2313 27.4922 89.6522 27.913 90.0731 28.3338C90.494 28.7546 90.9149 29.3858 91.1254 30.017C91.3358 30.6482 91.7568 31.2794 91.9672 31.9106C92.1777 32.5418 92.1777 33.3834 92.3881 34.225C92.809 34.8562 92.809 35.6978 92.809 36.5394ZM86.285 36.329C86.285 35.277 86.285 34.225 86.0745 33.3834C85.864 32.5418 85.8641 32.121 85.6536 31.4898C85.4431 31.069 85.2327 30.8586 84.8118 30.6482C84.6013 30.4378 84.1804 30.4378 83.7595 30.4378C83.3386 30.4378 83.1281 30.4378 82.9177 30.6482C82.7072 30.6482 82.4968 30.8586 82.2863 31.069C82.0759 31.2794 81.8654 31.4898 81.8654 31.9106C81.655 32.121 81.655 32.5418 81.4445 32.9626C81.4445 33.3834 81.2341 34.0146 81.2341 34.4354C81.2341 35.0666 81.2341 35.6978 81.2341 36.5394C81.2341 37.381 81.2341 38.0122 81.2341 38.6434C81.2341 39.2746 81.4445 39.6954 81.4445 40.3265C81.4445 40.7473 81.655 41.1681 81.8654 41.3785C82.0759 41.5889 82.0759 41.7993 82.2863 42.0097C82.4968 42.2201 82.7072 42.2201 82.9177 42.4305C83.1281 42.4305 83.549 42.6409 83.7595 42.6409C84.1804 42.6409 84.6013 42.4305 85.0222 42.2201C85.2327 42.0097 85.6536 41.7993 85.6536 41.3785C85.8641 40.9577 86.0745 40.3266 86.0745 39.485C86.0745 38.433 86.285 37.381 86.285 36.329Z" fill="url(#paint4_linear_5615_255)"/>
<path id="Vector_6" d="M72.3952 46.4279C72.3952 47.9007 72.3952 49.1631 72.1847 50.6359C71.9743 51.8983 71.9743 53.1607 71.7638 54.2127C71.5534 55.2647 71.3429 56.3167 70.922 57.3687C70.5011 58.4207 70.0802 59.2623 69.6593 60.3143C69.0279 61.3663 68.1861 62.4183 67.3443 63.2599C66.5025 64.1015 65.6607 64.9431 64.6084 65.5743C63.5561 66.2055 62.5039 66.6263 61.2411 66.8367C60.1889 67.2575 58.9261 67.2575 57.6634 67.2575C56.1902 67.2575 54.9275 67.0471 53.4543 66.6263C52.1916 66.2055 50.9289 65.5743 49.8766 64.7327C48.8244 63.8911 47.7721 62.8391 46.9303 61.7871C46.0884 60.7351 45.4571 59.2623 44.8257 57.9999C44.4048 57.1583 44.1944 56.5271 43.9839 55.4751C43.7735 54.6335 43.563 53.7919 43.3525 52.9503C43.1421 52.1087 43.1421 51.0567 43.1421 50.0047C43.1421 49.1631 42.9316 47.9007 42.9316 47.0591C42.9316 45.7967 42.9317 44.5343 43.1421 43.2719C43.1421 42.0096 43.3526 40.7472 43.563 39.6952C43.7735 38.6432 43.9839 37.5912 44.1944 36.5392C44.4048 35.6976 44.6153 34.6456 45.0362 34.0144C45.6675 32.752 46.2989 31.4896 47.1407 30.4376C47.9825 29.3856 49.0348 28.544 50.0871 27.9128C51.1393 27.2816 52.4021 26.6504 53.6648 26.2296C54.9275 25.8088 56.4007 25.5984 57.8739 25.5984C58.7157 25.5984 59.768 25.5984 60.6098 25.8088C61.4516 26.0192 62.2934 26.2296 63.1352 26.6504C63.9771 27.0712 64.6084 27.492 65.4502 27.9128C66.292 28.3336 66.713 28.9648 67.3443 29.596C67.9757 30.2272 68.3966 30.8584 69.0279 31.7C69.4488 32.5416 69.8698 33.1728 70.2907 34.2248C71.1325 35.6976 71.5534 37.5912 71.9743 39.6952C72.1848 41.168 72.3952 43.6927 72.3952 46.4279ZM63.1352 45.7967C63.1352 44.1135 63.1352 42.8511 62.9248 41.3784C62.9248 40.116 62.7143 38.8536 62.5039 37.8016C62.2934 36.96 62.0829 35.908 61.662 35.2768C61.4516 34.4352 61.0307 34.0144 60.6098 33.5936C60.1889 33.1728 59.768 32.752 59.3471 32.752C58.7157 32.5416 58.2948 32.3312 57.453 32.3312C56.6111 32.3312 55.7693 32.5416 54.9275 32.9624C54.2962 33.5936 53.6648 34.2248 53.2439 35.2768C52.823 36.3288 52.4021 37.8016 52.1916 39.6952C51.9812 41.3784 51.7707 43.4823 51.7707 46.0071C51.7707 47.6903 51.7707 49.1631 51.9812 50.4255C52.1916 51.6879 52.1916 52.9503 52.4021 54.0023C52.6125 55.0543 52.823 55.8959 53.2439 56.5271C53.4543 57.3687 53.8752 57.7895 54.2961 58.4207C54.7171 58.8415 55.138 59.2623 55.5589 59.2623C55.9798 59.4727 56.6112 59.6831 57.2425 59.6831C58.0843 59.6831 58.5052 59.6831 59.1366 59.2623C59.768 59.0519 60.1889 58.6311 60.3993 58.2103C60.8202 57.7895 61.2411 57.1583 61.4516 56.3167C61.6621 55.4751 62.083 54.6335 62.083 53.5815C62.2934 52.5295 62.5039 51.2671 62.5039 50.0047C63.1352 48.9527 63.1352 47.4799 63.1352 45.7967Z" fill="url(#paint5_linear_5615_255)"/>
<path id="Vector_7" d="M110.486 30.2274L88.3888 65.9953C87.9679 66.6265 87.547 67.0473 87.3365 67.2577C86.9156 67.6785 86.2842 67.8889 85.8633 67.8889C85.6529 67.8889 85.232 67.8889 85.0215 67.6785C84.6006 67.4681 84.3902 67.4681 84.1797 67.2577C83.9693 67.0473 83.5484 66.6265 83.5484 66.4161C83.3379 65.9953 83.3379 65.7849 83.3379 65.3641C83.3379 65.1537 83.3379 64.7329 83.5484 64.5225C83.7588 64.1017 83.7588 63.8913 83.9693 63.6809L106.277 27.7026C106.488 27.2818 106.698 27.0714 106.909 26.861C107.119 26.6506 107.33 26.2298 107.54 26.2298C107.751 26.0194 108.171 25.809 108.382 25.5986C108.592 25.3882 109.013 25.3882 109.434 25.3882C110.276 25.3882 110.907 25.5986 111.328 26.0194C111.539 26.2298 111.749 26.6506 111.96 26.861C112.17 27.2818 112.17 27.4922 112.17 27.913C112.17 28.3338 112.17 28.5442 111.96 28.965C111.118 29.1754 110.907 29.5962 110.486 30.2274Z" fill="url(#paint6_linear_5615_255)"/>
</g>
</g>
</g>
<defs>
<filter id="filter0_d_5615_255" x="0" y="0" width="153.844" height="153.807" filterUnits="userSpaceOnUse" color-interpolation-filters="sRGB">
<feFlood flood-opacity="0" result="BackgroundImageFix"/>
<feColorMatrix in="SourceAlpha" type="matrix" values="0 0 0 0 0 0 0 0 0 0 0 0 0 0 0 0 0 0 127 0" result="hardAlpha"/>
<feOffset dy="4"/>
<feGaussianBlur stdDeviation="2"/>
<feComposite in2="hardAlpha" operator="out"/>
<feColorMatrix type="matrix" values="0 0 0 0 0.219608 0 0 0 0 0.0352941 0 0 0 0 0.0705882 0 0 0 0.9 0"/>
<feBlend mode="normal" in2="BackgroundImageFix" result="effect1_dropShadow_5615_255"/>
<feBlend mode="normal" in="SourceGraphic" in2="effect1_dropShadow_5615_255" result="shape"/>
</filter>
<linearGradient id="paint0_linear_5615_255" x1="4" y1="72.8508" x2="149.739" y2="72.8508" gradientUnits="userSpaceOnUse">
<stop stop-color="#9C7F3A"/>
<stop offset="0.32" stop-color="#F7CF91"/>
<stop offset="0.439" stop-color="#F3CB8F"/>
<stop offset="0.5329" stop-color="#EAC287"/>
<stop offset="0.6179" stop-color="#DAB37A"/>
<stop offset="0.6976" stop-color="#C59F69"/>
<stop offset="0.7" stop-color="#C49E69"/>
<stop offset="1" stop-color="#C49E69"/>
</linearGradient>
<linearGradient id="paint1_linear_5615_255" x1="54.0114" y1="120.912" x2="104.251" y2="70.6595" gradientUnits="userSpaceOnUse">
<stop stop-color="#A4754A"/>
<stop offset="0.1097" stop-color="#B78A55"/>
<stop offset="0.2605" stop-color="#CDA462"/>
<stop offset="0.4108" stop-color="#DFBA6C"/>
<stop offset="0.5591" stop-color="#ECC973"/>
<stop offset="0.703" stop-color="#F1CE76"/>
<stop offset="0.7578" stop-color="#E6C170"/>
<stop offset="0.8503" stop-color="#CEA562"/>
<stop offset="0.9686" stop-color="#AD7F4F"/>
<stop offset="1" stop-color="#A4754A"/>
</linearGradient>
<linearGradient id="paint2_linear_5615_255" x1="27.5401" y1="110.339" x2="48.8351" y2="89.0383" gradientUnits="userSpaceOnUse">
<stop stop-color="#A4754A"/>
<stop offset="0.1097" stop-color="#B78A55"/>
<stop offset="0.2605" stop-color="#CDA462"/>
<stop offset="0.4108" stop-color="#DFBA6C"/>
<stop offset="0.5591" stop-color="#ECC973"/>
<stop offset="0.703" stop-color="#F1CE76"/>
<stop offset="0.7578" stop-color="#E6C170"/>
<stop offset="0.8503" stop-color="#CEA562"/>
<stop offset="0.9686" stop-color="#AD7F4F"/>
<stop offset="1" stop-color="#A4754A"/>
</linearGradient>
<linearGradient id="paint3_linear_5615_255" x1="103.439" y1="63.0988" x2="118.419" y2="48.1153" gradientUnits="userSpaceOnUse">
<stop stop-color="#A4754A"/>
<stop offset="0.1097" stop-color="#B78A55"/>
<stop offset="0.2605" stop-color="#CDA462"/>
<stop offset="0.4108" stop-color="#DFBA6C"/>
<stop offset="0.5591" stop-color="#ECC973"/>
<stop offset="0.703" stop-color="#F1CE76"/>
<stop offset="0.7578" stop-color="#E6C170"/>
<stop offset="0.8503" stop-color="#CEA562"/>
<stop offset="0.9686" stop-color="#AD7F4F"/>
<stop offset="1" stop-color="#A4754A"/>
</linearGradient>
<linearGradient id="paint4_linear_5615_255" x1="76.1381" y1="43.8301" x2="91.14" y2="28.8245" gradientUnits="userSpaceOnUse">
<stop stop-color="#A4754A"/>
<stop offset="0.1097" stop-color="#B78A55"/>
<stop offset="0.2605" stop-color="#CDA462"/>
<stop offset="0.4108" stop-color="#DFBA6C"/>
<stop offset="0.5591" stop-color="#ECC973"/>
<stop offset="0.703" stop-color="#F1CE76"/>
<stop offset="0.7578" stop-color="#E6C170"/>
<stop offset="0.8503" stop-color="#CEA562"/>
<stop offset="0.9686" stop-color="#AD7F4F"/>
<stop offset="1" stop-color="#A4754A"/>
</linearGradient>
<linearGradient id="paint5_linear_5615_255" x1="44.5153" y1="59.2728" x2="70.9188" y2="32.8627" gradientUnits="userSpaceOnUse">
<stop stop-color="#A4754A"/>
<stop offset="0.1097" stop-color="#B78A55"/>
<stop offset="0.2605" stop-color="#CDA462"/>
<stop offset="0.4108" stop-color="#DFBA6C"/>
<stop offset="0.5591" stop-color="#ECC973"/>
<stop offset="0.703" stop-color="#F1CE76"/>
<stop offset="0.7578" stop-color="#E6C170"/>
<stop offset="0.8503" stop-color="#CEA562"/>
<stop offset="0.9686" stop-color="#AD7F4F"/>
<stop offset="1" stop-color="#A4754A"/>
</linearGradient>
<linearGradient id="paint6_linear_5615_255" x1="80.2343" y1="63.5547" x2="114.493" y2="29.2877" gradientUnits="userSpaceOnUse">
<stop stop-color="#A4754A"/>
<stop offset="0.1097" stop-color="#B78A55"/>
<stop offset="0.2605" stop-color="#CDA462"/>
<stop offset="0.4108" stop-color="#DFBA6C"/>
<stop offset="0.5591" stop-color="#ECC973"/>
<stop offset="0.703" stop-color="#F1CE76"/>
<stop offset="0.7578" stop-color="#E6C170"/>
<stop offset="0.8503" stop-color="#CEA562"/>
<stop offset="0.9686" stop-color="#AD7F4F"/>
<stop offset="1" stop-color="#A4754A"/>
</linearGradient>
</defs>
</svg>
