<svg width="32" height="32" viewBox="0 0 32 32" fill="none" xmlns="http://www.w3.org/2000/svg">
<g id="Frame" clip-path="url(#clip0_5699_26)">
<g id="Group">
<path id="Vector" d="M20 32H4.41333C1.98667 32 0 30.2971 0 28.2171V3.78286C0 1.70286 1.98667 0 4.41333 0H27.5867C30.0133 0 32 1.70286 32 3.78286V21.7143C32 22.3429 31.4 22.8571 30.6667 22.8571C29.9333 22.8571 29.3333 22.3429 29.3333 21.7143V3.78286C29.3333 2.96 28.5467 2.28571 27.5867 2.28571H4.41333C3.45333 2.28571 2.66667 2.96 2.66667 3.78286V28.2171C2.66667 29.04 3.45333 29.7143 4.41333 29.7143H20C20.7333 29.7143 21.3333 30.2286 21.3333 30.8571C21.3333 31.4857 20.7333 32 20 32Z" fill="white"/>
<path id="Vector_2" d="M25.0451 29.1462C24.1144 28.9702 23.2847 28.5146 22.7335 27.861L16.2655 20.3252C16.1273 20.1642 16.0543 19.9769 16.0412 19.7913L15.838 16.3412C15.8146 16.0187 16.0024 15.7265 16.3105 15.5631C16.632 15.3926 17.0451 15.3744 17.4051 15.5099L21.3987 16.9494C21.6127 17.0284 21.8063 17.1517 21.9446 17.3128L28.4125 24.8486C29.5678 26.1946 29.2335 27.9626 27.6664 28.7938C26.9048 29.1895 25.9759 29.3222 25.0451 29.1462ZM18.3731 19.5673L24.622 26.8592C24.8097 27.0778 25.0829 27.2259 25.397 27.2853C25.7112 27.3447 26.0196 27.3066 26.2741 27.1716C26.7965 26.8945 26.9073 26.3083 26.5222 25.8596L20.2733 18.5677L18.2756 17.8526L18.3731 19.5673Z" fill="white"/>
</g>
</g>
<defs>
<clipPath id="clip0_5699_26">
<rect width="32" height="32" fill="white"/>
</clipPath>
</defs>
</svg>
