<svg width="32" height="32" viewBox="0 0 32 32" fill="none" xmlns="http://www.w3.org/2000/svg">
<g id="Group">
<g id="Group_2">
<path id="Vector" d="M10.528 31.9998C8.89458 31.9998 7.55469 30.5926 7.55469 28.8471C7.55469 27.1017 8.89458 25.708 10.528 25.708C12.1614 25.708 13.5013 27.1152 13.5013 28.8607C13.5013 30.6061 12.1614 31.9998 10.528 31.9998ZM10.528 27.264C9.69852 27.264 9.02219 27.9812 9.02219 28.8607C9.02219 29.7401 9.69852 30.4437 10.528 30.4437C11.3574 30.4437 12.0338 29.7266 12.0338 28.8471C12.0338 27.9676 11.3574 27.264 10.528 27.264Z" fill="white"/>
<path id="Vector_2" d="M25.8405 32.0001C24.2071 32.0001 22.8672 30.5929 22.8672 28.8475C22.8672 27.102 24.1943 25.6948 25.8405 25.6948C27.4866 25.6948 28.8138 27.102 28.8138 28.8475C28.8138 30.5929 27.4739 32.0001 25.8405 32.0001ZM25.8405 27.2644C25.011 27.2644 24.3347 27.9815 24.3347 28.861C24.3347 29.7405 25.011 30.4441 25.8405 30.4441C26.6699 30.4441 27.3463 29.727 27.3463 28.8475C27.3463 27.968 26.6699 27.2644 25.8405 27.2644Z" fill="white"/>
<path id="Vector_3" d="M28.7121 24.5581H10.8978C9.04749 24.5581 7.42685 23.1645 7.05679 21.2431L3.36888 2.28668C3.29232 1.86723 2.93501 1.55603 2.52666 1.55603H0V0H2.52666C3.6241 0 4.58117 0.82537 4.81087 1.97548L8.48601 20.9319C8.71571 22.1362 9.73658 23.0156 10.8978 23.0156H28.7121V24.5581Z" fill="white"/>
<path id="Vector_4" d="M27.666 20.4991H10.5281V18.9431H27.666C28.0871 18.9431 28.4445 18.6183 28.521 18.1853L30.5245 6.00776C30.5628 5.73715 30.499 5.46653 30.3331 5.26357C30.1672 5.06061 29.9247 4.93884 29.6695 4.93884H7.33789V3.38281H29.6695C30.3586 3.38281 31.0094 3.70755 31.456 4.26231C31.9027 4.81706 32.0813 5.56125 31.9665 6.27837L29.963 18.456C29.7716 19.6331 28.8018 20.4991 27.666 20.4991Z" fill="white"/>
</g>
</g>
</svg>
