<svg width="32" height="32" viewBox="0 0 32 32" fill="none" xmlns="http://www.w3.org/2000/svg">
<g id="Frame" clip-path="url(#clip0_5699_40)">
<path id="Vector" d="M24.6857 32C24.5029 32 24.1371 31.8171 23.9543 31.6343L17.92 24.1371H3.47429C1.64571 24.1371 0 22.6743 0 20.6629V3.47429C0 1.46286 1.46286 0 3.47429 0H28.7086C30.5371 0 32.1829 1.46286 32.1829 3.47429V20.8457C32.1829 22.6743 30.72 24.32 28.7086 24.32H25.6V31.0857C25.6 31.4514 25.4171 31.8171 25.0514 32C24.8686 32 24.8686 32 24.6857 32ZM3.47429 1.82857C2.56 1.82857 1.82857 2.56 1.82857 3.47429V20.8457C1.82857 21.76 2.56 22.4914 3.47429 22.4914H18.4686C18.6514 22.4914 19.0171 22.6743 19.2 22.8571L23.9543 28.7086V23.4057C23.9543 22.8571 24.32 22.4914 24.8686 22.4914H28.7086C29.6229 22.4914 30.3543 21.76 30.3543 20.8457V3.47429C30.3543 2.56 29.6229 1.82857 28.7086 1.82857H3.47429Z" fill="white"/>
</g>
<defs>
<clipPath id="clip0_5699_40">
<rect width="32" height="32" fill="white"/>
</clipPath>
</defs>
</svg>
