<svg width="32" height="32" viewBox="0 0 32 32" fill="none" xmlns="http://www.w3.org/2000/svg">
<g id="Frame" clip-path="url(#clip0_5699_7)">
<path id="Vector" d="M31.552 15.5915L17.6 0.748936C17.152 0.27234 16.576 0 16 0C15.424 0 14.848 0.27234 14.4 0.748936L0.448 15.5915C0.192 15.8638 0 16.2723 0 16.7489C0 17.634 0.64 18.383 1.536 18.383H3.84V30.2979C3.84 31.2511 4.544 32 5.44 32H26.56C27.456 32 28.16 31.2511 28.16 30.2979V18.383H30.464C31.296 18.383 32 17.634 32 16.7489C32 16.2723 31.872 15.8638 31.552 15.5915ZM12.8 30.6383V24.1702C12.8 23.966 12.928 23.8298 13.12 23.8298H18.88C19.072 23.8298 19.2 23.966 19.2 24.1702V30.6383H12.8ZM30.464 17.0213H27.52C27.136 17.0213 26.88 17.2936 26.88 17.7021V30.2979C26.88 30.5021 26.752 30.6383 26.56 30.6383H20.48V24.1702C20.48 23.217 19.776 22.4681 18.88 22.4681H13.12C12.224 22.4681 11.52 23.217 11.52 24.1702V30.6383H5.44C5.248 30.6383 5.12 30.5021 5.12 30.2979V17.7021C5.12 17.2936 4.864 17.0213 4.48 17.0213H1.536C1.28 17.0213 1.28 16.7489 1.28 16.7489C1.28 16.6809 1.344 16.6128 1.344 16.6128L15.296 1.70213C15.488 1.49787 15.744 1.3617 16 1.3617C16.256 1.3617 16.512 1.49787 16.704 1.70213L30.656 16.5447C30.656 16.5447 30.72 16.6128 30.72 16.6809C30.72 16.7489 30.72 17.0213 30.464 17.0213Z" fill="white"/>
</g>
<defs>
<clipPath id="clip0_5699_7">
<rect width="32" height="32" fill="white"/>
</clipPath>
</defs>
</svg>
