<svg width="32" height="32" viewBox="0 0 32 32" fill="none" xmlns="http://www.w3.org/2000/svg">
<g id="Frame" clip-path="url(#clip0_5699_31)">
<path id="Vector" d="M16.0554 0C20.4106 0 24.8028 0 29.158 0C31.3725 0 32 0.964539 32 4.42553C32.0369 12.1986 32.0369 19.9149 32 27.6879C32 30.922 31.3356 31.9433 29.2318 31.9433C20.4475 32 11.6632 32 2.87889 31.9433C0.66436 31.9433 0.0369089 30.922 0 27.5177C0 19.7447 0 12.0284 0 4.25532C0 1.02128 0.66436 0 2.76817 0C7.19723 0 11.6263 0 16.0554 0ZM16.1661 2.04255C11.9216 2.04255 7.67705 2.09929 3.43253 2.04255C2.0669 2.04255 1.40254 2.7234 1.40254 4.99291C1.43945 12.3688 1.43945 19.7447 1.40254 27.1206C1.40254 29.2199 1.99308 29.9574 3.3218 29.9574C11.737 29.9007 20.1522 29.9007 28.5675 29.9574C30.0807 29.9574 30.6344 29.0496 30.5975 26.7234C30.5236 19.5177 30.5236 12.3688 30.5975 5.16312C30.6344 2.78014 29.9331 1.98582 28.4937 2.04255C24.3968 2.09929 20.2999 2.04255 16.1661 2.04255Z" fill="white"/>
<path id="Vector_2" d="M11.0352 15.9168C11.0352 14.4795 10.9956 13.0811 11.0352 11.6439C11.0747 10.1289 12.0638 9.62393 13.2903 10.2843C15.9806 11.6439 18.5918 13.1588 21.1238 14.7514C22.4294 15.5672 22.1921 16.616 20.9656 17.354C18.4335 18.869 15.9015 20.3062 13.2903 21.7046C11.9451 22.4038 11.1143 21.8212 11.0352 20.3839C10.956 18.869 11.0352 17.3929 11.0352 15.9168ZM12.5781 11.4108C12.5781 14.6349 12.5781 17.354 12.5781 20.5005C15.308 18.9467 17.7214 17.5871 20.5304 15.9945C17.7609 14.4018 15.3476 13.0034 12.5781 11.4108Z" fill="white"/>
</g>
<defs>
<clipPath id="clip0_5699_31">
<rect width="32" height="32" fill="white"/>
</clipPath>
</defs>
</svg>
