<svg width="33" height="34" viewBox="0 0 33 34" fill="none" xmlns="http://www.w3.org/2000/svg">
<g id="Group 2272">
<path id="Union" fill-rule="evenodd" clip-rule="evenodd" d="M19.4342 2.89724C19.0513 2.86733 18.5623 2.99757 18.0182 3.50759L18.0086 3.51661C17.2246 4.23243 16.7229 5.52725 16.4317 6.81043C16.3359 7.23269 16.2678 7.63082 16.2198 7.97175C16.5141 7.94993 16.8513 7.91435 17.2103 7.85717C18.4008 7.66754 19.6583 7.26638 20.4573 6.50748C20.9649 5.99662 21.1702 5.47261 21.1908 5.0111C21.2117 4.54543 21.0488 4.05568 20.6639 3.60662C20.2662 3.14265 19.8299 2.92816 19.4342 2.89724ZM15.0802 10.0008L15.1007 10.0005L15.1298 10.0014C15.1655 10.0024 15.2156 10.0035 15.2787 10.0041C15.381 10.005 15.5178 10.0046 15.6828 10.0005H30.1816V14.5005H28.1816V16.5005H28.3346V31.1115H3.66797V16.5005H3.68164V14.5005H2.18164V10.0005H14.9047C14.9197 10.0007 14.934 10.0008 14.9477 10.0009C15.0038 10.0013 15.0484 10.0011 15.0802 10.0008ZM21.789 8.00049C21.8087 7.98221 21.8283 7.96376 21.8477 7.94514L21.8558 7.93746L21.8636 7.92961C22.6836 7.10964 23.143 6.12557 23.1888 5.10057C23.2347 4.07735 22.8642 3.10043 22.1824 2.30504C21.5135 1.52458 20.6164 0.983508 19.59 0.903316C18.5525 0.822262 17.5322 1.22375 16.6551 2.04405C15.854 2.77761 15.3164 3.78009 14.9519 4.76269C14.6302 4.07508 14.2163 3.40268 13.6844 2.87088C12.9253 2.11172 11.9974 1.75127 11.0629 1.8378C10.1527 1.92208 9.36007 2.41907 8.81512 3.13517C7.65696 4.54304 7.64991 6.51228 8.97439 8.00049H0.181641V16.5005H1.66797V33.1115H30.3346V16.5005H32.1816V8.00049H21.789ZM13.9032 7.93962C13.8514 7.70931 13.789 7.45711 13.7148 7.19345C13.4014 6.08056 12.9235 4.93832 12.2702 4.28509C11.8738 3.8887 11.5128 3.8047 11.2473 3.82928C10.9662 3.85531 10.6542 4.01626 10.3996 4.35577L10.3842 4.37626L10.3678 4.39595C9.81855 5.05503 9.77682 5.97762 10.5637 6.77228C11.1813 7.35053 12.2316 7.68781 13.2813 7.85746C13.4993 7.89269 13.7088 7.9194 13.9032 7.93962ZM15.1422 27.0002V19.0902H13.4902V17.3542L15.4502 16.5142H17.8582V27.0002H15.1422Z" fill="white"/>
</g>
</svg>
