<svg width="33" height="33" viewBox="0 0 33 33" fill="none" xmlns="http://www.w3.org/2000/svg">
<path id="Union" fill-rule="evenodd" clip-rule="evenodd" d="M19.4342 2.88365C19.0513 2.85394 18.5623 2.9833 18.0182 3.48986L18.0086 3.49881C17.2246 4.20979 16.7229 5.49583 16.4317 6.77031C16.3359 7.1897 16.2678 7.58513 16.2198 7.92374C16.5141 7.90207 16.8513 7.86674 17.2103 7.80995C18.4008 7.6216 19.6583 7.22316 20.4573 6.46941C20.9649 5.96201 21.1702 5.44155 21.1908 4.98318C21.2117 4.52066 21.0488 4.03423 20.6639 3.58822C20.2662 3.12739 19.8299 2.91436 19.4342 2.88365ZM15.1013 9.93875L15.1298 9.93965C15.1655 9.94063 15.2156 9.9417 15.2787 9.94227C15.381 9.94321 15.5179 9.94286 15.6829 9.93873H30.1816V14.4082H28.1816V16.3947H28.3346V30.9066H3.66797V16.3947H3.68164V14.4082H2.18164V9.93873H14.9065L14.9496 9.93912C15.0058 9.9395 15.0504 9.93932 15.0821 9.93901L15.1013 9.93875ZM32.1816 16.3947H30.3346V32.8931H1.66797V16.3947H0.181641V7.95229H8.97634C7.65187 6.47418 7.65891 4.51829 8.81708 3.11997C9.36203 2.40872 10.1547 1.9151 11.0649 1.8314C11.9994 1.74545 12.9272 2.10346 13.6864 2.85747C14.2176 3.38507 14.6312 4.052 14.9528 4.73413C15.3172 3.75894 15.8546 2.76425 16.6551 2.03625C17.5322 1.22151 18.5525 0.822742 19.59 0.903246C20.6164 0.982894 21.5135 1.52029 22.1824 2.29547C22.8642 3.08547 23.2347 4.05576 23.1888 5.07203C23.143 6.09009 22.6836 7.06748 21.8636 7.88189L21.8558 7.8897L21.8477 7.89732C21.8283 7.91582 21.8087 7.93414 21.789 7.95229H32.1816V16.3947ZM13.7167 7.15072C13.791 7.4126 13.8533 7.66309 13.9051 7.89184C13.7107 7.87176 13.5013 7.84523 13.2833 7.81024C12.2335 7.64173 11.1832 7.30675 10.5656 6.73241C9.77878 5.94314 9.8205 5.02681 10.3697 4.3722L10.3861 4.35264L10.4015 4.33228C10.6561 3.99508 10.9682 3.83523 11.2493 3.80937C11.5148 3.78496 11.8758 3.86839 12.2722 4.26209C12.9254 4.91089 13.4034 6.04538 13.7167 7.15072ZM18.7816 14.9048C17.6525 14.9048 16.6748 15.3669 15.9807 16.0975C14.743 14.7967 12.9282 14.6995 11.5135 15.3337C9.93396 16.0417 8.72545 17.7202 9.29543 19.7891C9.63791 21.4034 10.8094 22.5604 12.0383 23.5042C12.5201 23.8742 13.0295 24.2248 13.5162 24.5599C13.6546 24.6551 13.7911 24.7491 13.9247 24.842C14.5378 25.2681 15.0921 25.6721 15.5378 26.0914C15.727 26.2695 16.0223 26.2733 16.2161 26.1C16.6902 25.6763 17.2603 25.2699 17.8793 24.843C17.9783 24.7747 18.0785 24.7059 18.1797 24.6365L18.1797 24.6365C18.7028 24.2775 19.2497 23.9021 19.7645 23.5026C20.9814 22.5584 22.1206 21.4054 22.4653 19.8013C23.2564 17.38 21.2886 14.9048 18.7816 14.9048ZM16.3977 17.1667C16.9107 16.4025 17.7589 15.898 18.7816 15.898C20.665 15.898 22.0917 17.7739 21.5073 19.5152C21.5011 19.5337 21.496 19.5526 21.492 19.5717C21.2292 20.8331 20.3247 21.8075 19.1488 22.72C18.6592 23.0998 18.1406 23.4559 17.6175 23.815L17.6166 23.8156C17.5142 23.8859 17.4116 23.9564 17.3089 24.0272C16.82 24.3644 16.3317 24.7088 15.8887 25.0705C15.4608 24.7082 14.9815 24.3642 14.498 24.0282C14.3563 23.9297 14.2144 23.832 14.0727 23.7344C13.5895 23.4018 13.1091 23.071 12.65 22.7184C11.458 21.8031 10.5332 20.8292 10.2713 19.5717C10.269 19.5608 10.2664 19.55 10.2634 19.5394C9.84408 18.04 10.6834 16.7954 11.9248 16.239C13.1671 15.6821 14.6835 15.8734 15.5677 17.1698C15.6611 17.3067 15.817 17.3885 15.9835 17.3879C16.15 17.3873 16.3053 17.3043 16.3977 17.1667Z" fill="white"/>
</svg>
