<svg width="27" height="27" viewBox="0 0 27 27" fill="none" xmlns="http://www.w3.org/2000/svg">
<g id="Group">
<path id="Vector" d="M10.5043 20.4236C10.7142 20.6335 11.0028 20.7385 11.2652 20.7385C11.5538 20.7385 11.8162 20.6335 12.0261 20.4236L17.7722 14.6776C17.9821 14.4677 18.087 14.2053 18.087 13.9167C18.087 13.628 17.9821 13.3657 17.7722 13.1558L12.0261 7.38346C11.6063 6.96365 10.9241 6.96365 10.5043 7.38346C10.0845 7.80326 10.0845 8.48544 10.5043 8.90525L15.4895 13.8904L10.5043 18.8756C10.0845 19.2954 10.0845 19.9776 10.5043 20.4236Z" fill="#FAD495"/>
<path id="Vector_2" d="M13.1027 26.9307C20.2918 26.9307 26.1428 21.0797 26.1428 13.8905C26.1428 6.70136 20.2918 0.850342 13.1027 0.850342C5.91352 0.850342 0.0625 6.70136 0.0625 13.8905C0.0625 21.0797 5.91352 26.9307 13.1027 26.9307ZM13.1027 3.00184C19.1111 3.00184 23.9913 7.88206 23.9913 13.8905C23.9913 19.899 19.1111 24.7792 13.1027 24.7792C7.09422 24.7792 2.214 19.899 2.214 13.8905C2.214 7.9083 7.12046 3.00184 13.1027 3.00184Z" fill="#FAD495"/>
</g>
</svg>
